<?xml version="1.0" encoding="utf-8"?>
<!-- Generator: Adobe Illustrator 19.0.0, SVG Export Plug-In . SVG Version: 6.00 Build 0)  -->
<svg version="1.0" id="Layer_1" xmlns="http://www.w3.org/2000/svg" xmlns:xlink="http://www.w3.org/1999/xlink" x="0px" y="0px"
	 viewBox="0 0 128 128" enable-background="new 0 0 128 128" xml:space="preserve">
<path fill="none" stroke="#000000" stroke-width="0.75" stroke-linecap="round" stroke-miterlimit="10" d="M13,65.1
	c-7.1,0-12.9-1.8-12.9-4v20.3c0,2.2,5.8,4,12.9,4h102.1c7.1,0,12.9-1.8,12.9-4V61.1c0,2.2-5.8,4-12.9,4H13z"/>
<path fill="none" stroke="#000000" stroke-width="0.75" stroke-linecap="round" stroke-miterlimit="10" d="M13,66.1
	c-7.1,0-12.9-1.8-12.9-4v20.3c0,2.2,5.8,4,12.9,4h102.1c7.1,0,12.9-1.8,12.9-4V62.1c0,2.2-5.8,4-12.9,4H13z"/>
<path fill="none" stroke="#000000" stroke-width="0.75" stroke-linecap="round" stroke-miterlimit="10" d="M13,65.7
	c-7.1,0-12.9-1.8-12.9-4v20.3c0,2.2,5.8,4,12.9,4h102.1c7.1,0,12.9-1.8,12.9-4V61.6c0,2.2-5.8,4-12.9,4H13z"/>
<path fill="none" stroke="#000000" stroke-width="0.5" stroke-miterlimit="10" d="M0,61.1l10.4-16.5c1-1.6,6.1-2.9,12.3-2.9h82.5
	c6.3,0,11.4,1.3,12.3,2.9l10.4,16.5"/>
<path fill="none" stroke="#000000" stroke-width="0.5" stroke-miterlimit="10" d="M-13.5-16"/>
<circle cx="107.9" cy="69.7" r="1.5"/>
<g>
	<g>
		<path d="M77.9,51.4c-1.7-0.2-2.7-0.6-2.7-1.1c0-0.4,0.7-0.8,1.9-1c0.5-0.1,0.8-0.3,0.9-0.4c0-0.2-0.2-0.3-0.7-0.5
			c-1.3-0.3-2.8-0.5-4.5-0.6c0.1,0,0.2-0.1,0.4-0.1c1.5-0.5,2.1-1.1,1.7-1.8c-0.2-0.3-1.1-0.5-2.2-0.5c-2.5,0-4.8,0.2-6.3,0.7
			c-1.5,0.5-2.1,1.1-1.7,1.8c-0.3,0-0.7,0-1-0.1c-0.4,0-0.9,0-1.3,0c0,0-0.1,0-0.1,0c-4.7,0-8.6,1-8.8,2.3c-0.7,2,4.8,3.7,5.2,3.8
			c0.9,0.3,2.1,0.4,3.5,0.4c0.1,0,0.3,0,0.5,0c0,0,0.1,0,0.1,0c0.1,0,0.3,0,0.4,0l0.1,0c0.1,0,0.3,0,0.4,0c0,0,0,0,0,0
			c0.2,0,0.3,0,0.4,0c0,0,0,0,0,0l0.1,0c1.6-0.2,3.4-0.2,4.9,0l0.1,0c0,0,0,0,0,0c0,0,0,0,0,0c0,0,0,0,0,0c0.1,0,0.3,0,0.4,0
			c0,0,0,0,0,0c0.1,0,0.3,0,0.4,0l0.1,0c0.1,0,0.2,0,0.4,0c0,0,0.1,0,0.1,0c0.2,0,0.3,0,0.5,0c0,0,0,0,0,0c1.3,0,2.6-0.2,3.5-0.4
			l0,0c0.5-0.1,2.7-0.8,4.1-1.8C79.5,51.8,79,51.5,77.9,51.4z M68.2,46.3c1.4-0.3,3.4-0.3,5.6-0.1c0.1,0.7-0.7,1.2-2,1.5
			c-1.4,0.3-3.4,0.3-5.6,0.1C66.1,47.1,66.8,46.6,68.2,46.3z M73.2,53.3C73.2,53.3,73.2,53.3,73.2,53.3c-0.4,0.1-0.8,0.2-1.3,0.2
			c0,0,0,0,0,0c0,0-0.1,0-0.2,0l-0.1,0c0,0-0.1,0-0.1,0l0,0c-0.1,0-0.1,0-0.1,0c0,0,0,0,0,0c-0.1,0-0.1,0-0.2,0c0,0,0,0,0,0l-0.2,0
			c-2.6-0.3-5.6-0.3-8.2,0l-0.2,0c0,0,0,0,0,0c0,0-0.1,0-0.2,0c0,0,0,0,0,0c0,0-0.1,0-0.2,0c0,0,0,0,0,0c0,0-0.1,0-0.1,0l-0.1,0
			c-0.1,0-0.1,0-0.2,0c-0.5,0-1-0.1-1.3-0.1c0,0,0,0-0.1,0c-0.1,0-5.5-1.5-4.9-3.2c0,0,0,0,0,0c0.2-0.8,2.9-1.5,6.3-1.5
			c0,0,0,0,0.1,0c0.3,0,0.6,0,0.9,0c0.3,0,0.6,0,0.9,0.1c0.1,0,0.1,0,0.1,0l0.2,0c0.1,0,0.2,0,0.3,0c0,0,0,0,0.1,0
			c0.1,0,0.2,0,0.3,0c0,0,0,0,0,0c0.8,0.1,1.5,0.2,2.2,0.2c0,0,0,0,0,0c0.7,0,1.4,0,2.2-0.1c0.1,0,0.2,0,0.3,0c0,0,0,0,0.1,0
			c0.1,0,0.2,0,0.3,0l0.2,0c0.1,0,0.1,0,0.2,0c0.3,0,0.6,0,0.9,0c0.3,0,0.6,0,0.9,0c1.1,0,2.1,0.1,3,0.2c-1.5,0.4-2.3,0.9-2.4,1.4
			c0,0.7,1.5,1.4,4,1.8C75.2,52.8,73.2,53.3,73.2,53.3z"/>
	</g>
</g>
</svg>
